HIERARCHY
ROOT Hips
{
  OFFSET 196.326 95.9168 97.7182
  CHANNELS 6 Xposition Yposition Zposition Zrotation Xrotation Yrotation
  JOINT LeftUpLeg
  {
    OFFSET 8.64259 1.95398 -2.38835
    CHANNELS 3 Zrotation Xrotation Yrotation
    JOINT LeftLeg
    {
      OFFSET 43.7702 0 0
      CHANNELS 3 Zrotation Xrotation Yrotation
      JOINT LeftFoot
      {
        OFFSET 40.6238 0 0
        CHANNELS 3 Zrotation Xrotation Yrotation
        JOINT LeftToeBase
        {
          OFFSET 12.7242 0 0
          CHANNELS 3 Zrotation Xrotation Yrotation
          End Site
          {
            OFFSET 0 0 0
          }
        }
      }
    }
  }
  JOINT RightUpLeg
  {
    OFFSET -8.2249 1.95398 -2.59336
    CHANNELS 3 Zrotation Xrotation Yrotation
    JOINT RightLeg
    {
      OFFSET 43.5653 0 0
      CHANNELS 3 Zrotation Xrotation Yrotation
      JOINT RightFoot
      {
        OFFSET 40.6238 0 0
        CHANNELS 3 Zrotation Xrotation Yrotation
        JOINT RightToeBase
        {
          OFFSET 12.7242 0 0
          CHANNELS 3 Zrotation Xrotation Yrotation
          End Site
          {
            OFFSET 0 0 0
          }
        }
      }
    }
  }
  JOINT Spine
  {
    OFFSET 0.165834 0.87714 6.61349
    CHANNELS 3 Zrotation Xrotation Yrotation
    JOINT Spine1
    {
      OFFSET 7.38963 1.71661e-005 0
      CHANNELS 3 Zrotation Xrotation Yrotation
      JOINT Spine2
      {
        OFFSET 11.9445 1.14441e-005 0
        CHANNELS 3 Zrotation Xrotation Yrotation
        JOINT Spine3
        {
          OFFSET 14.7254 4.19617e-005 0
          CHANNELS 3 Zrotation Xrotation Yrotation
          JOINT Spine4
          {
            OFFSET 10.9679 0 0
            CHANNELS 3 Zrotation Xrotation Yrotation
            JOINT RightShoulder
            {
              OFFSET 2.46616 -1.6653 3.69651
              CHANNELS 3 Zrotation Xrotation Yrotation
              JOINT RightArm
              {
                OFFSET 13.0012 0 0
                CHANNELS 3 Zrotation Xrotation Yrotation
                JOINT RightForeArm
                {
                  OFFSET 28.7848 1.52588e-005 0
                  CHANNELS 3 Zrotation Xrotation Yrotation
                  JOINT RightHand
                  {
                    OFFSET 26.5688 1.52588e-005 0
                    CHANNELS 3 Zrotation Xrotation Yrotation
                    End Site
                    {
                      OFFSET 0 0 0
                    }
                  }
                }
              }
            }
            JOINT LeftShoulder
            {
              OFFSET 2.38034 -1.29275 -3.75231
              CHANNELS 3 Zrotation Xrotation Yrotation
              JOINT LeftArm
              {
                OFFSET 16.3182 6.10351e-005 0
                CHANNELS 3 Zrotation Xrotation Yrotation
                JOINT LeftForeArm
                {
                  OFFSET 27.0901 0 0
                  CHANNELS 3 Zrotation Xrotation Yrotation
                  JOINT LeftHand
                  {
                    OFFSET 24.5451 1.52588e-005 0
                    CHANNELS 3 Zrotation Xrotation Yrotation
                    End Site
                    {
                      OFFSET 0 0 0
                    }
                  }
                }
              }
            }
            JOINT Neck
            {
              OFFSET 5.0226 -0.0266342 0
              CHANNELS 3 Zrotation Xrotation Yrotation
              JOINT Head
              {
                OFFSET 6.69363 2.86102e-005 0
                CHANNELS 3 Zrotation Xrotation Yrotation
                End Site
                {
                  OFFSET 0 0 0
                }
              }
            }
          }
        }
      }
    }
  }
}
MOTION
Frames:	6
Frame Time:	0.0416667
-30.7731 9.74842 10.7724 -0.732777 -2.16992 77.4865 -175.424 11.1129 88.6674 -20.3227 30.997 -0.778728 53.348 -0.73995 10.4087 122.999 61.5932 -36.7277 -178.431 13.8606 90.3434 -29.6555 -8.21128 -5.06667 59.5068 -0.031847 0.138425 58.1724 10.944 43.1283 2.00374 6.22851 -92.3329 14.4606 2.81918 -5.0846 2.78222 2.59295 -5.20341 -19.723 4.21583 -4.00446 0.289697 4.21584 -4.00446 98.9054 -25.0836 -89.3447 -61.1157 41.2668 81.2086 -16.1292 -5.9139 -148.177 -41.196 -2.49102 4.61823 -145.917 -38.5492 -2.2504 128.46 4.43765 121.536 15.2022 51.1699 -166.056 47.7492 5.56661 7.6925 32.122 -15.302 49.1852 -2.74743 -35.8298 -31.1358 
-30.7793 9.73785 10.7878 -0.699352 -2.11162 77.6038 -175.362 11.2364 88.82 -20.5422 30.831 -0.77143 53.4047 -0.840223 10.0259 124.758 61.528 -38.3064 -178.493 13.7268 90.3945 -29.355 -8.31302 -4.92758 59.3851 -0.0218391 0.143159 57.3351 10.7385 43.9888 2.00696 6.22572 -92.3404 14.4615 2.82176 -5.09931 2.78307 2.59491 -5.21817 -19.7215 4.22272 -4.01774 0.291158 4.22271 -4.01772 98.9218 -25.2681 -89.2847 -61.8142 41.2652 81.3201 -16.7501 -5.98959 -147.811 -41.515 -2.39994 4.27922 -145.911 -38.4723 -2.30091 128.434 4.46729 121.376 15.2192 51.1788 -166.042 47.1119 5.3689 7.44728 32.4623 -15.6114 49.3482 -3.6912 -36.0724 -31.2583 
-30.8045 9.75269 10.8035 -0.634335 -2.08001 77.564 -175.406 11.0957 88.8061 -20.351 30.8828 -0.741059 53.0908 -1.05519 10.0614 122.755 61.8721 -36.2089 -178.586 13.7438 90.3312 -29.428 -8.05498 -4.89292 58.9482 0.134197 0.25571 58.2261 11.2687 44.3652 2.00666 6.22779 -92.3349 14.4612 2.82408 -5.08781 2.78281 2.59773 -5.2068 -19.7225 4.22147 -4.00604 0.290209 4.22148 -4.00606 98.862 -25.105 -89.4384 -60.2678 40.8324 80.0148 -17.986 -6.64075 -147.648 -45.6434 -2.92208 5.10109 -145.806 -38.4711 -2.19029 127.46 3.60766 121.208 15.3402 50.3926 -165.994 48.6595 5.3459 6.98915 32.6647 -15.3822 49.9335 -6.90902 -35.4736 -32.2314 
-30.8353 9.7731 10.8049 -0.484934 -2.03108 77.6087 -175.429 11.0853 88.8655 -20.5543 30.6827 -0.682751 53.1603 -1.09344 9.74494 124.48 62.1245 -37.4134 -178.492 13.5682 90.4086 -29.4065 -8.01764 -4.94953 59.1924 0.0276258 0.180301 57.6368 10.9611 44.2993 2.00024 6.23205 -92.3491 14.454 2.80458 -5.11281 2.77559 2.57718 -5.23089 -19.729 4.21038 -4.03581 0.283698 4.21039 -4.03579 98.9099 -24.7271 -89.3813 -59.9228 40.6354 79.9581 -17.0575 -7.00564 -147.582 -42.1589 -3.16789 6.4191 -145.864 -38.437 -2.2768 127.836 4.08529 121.123 15.141 51.048 -165.947 48.2003 5.37041 7.15871 33.2817 -15.7453 50.0633 -8.55047 -35.6839 -32.341 
-30.8195 9.75626 10.8194 -0.532486 -1.99088 77.6591 -175.433 11.1605 88.933 -20.5973 30.6698 -0.659782 53.3091 -1.08675 9.34905 125.125 62.1504 -37.9348 -178.457 13.658 90.4728 -29.4172 -8.04512 -4.95348 59.0232 0.0896043 0.224591 57.5205 10.7872 43.8068 1.99923 6.20258 -92.3489 14.5125 2.80115 -5.11505 2.83401 2.57364 -5.23299 -19.6703 4.20777 -4.03898 0.342323 4.20776 -4.03897 99.1044 -24.3999 -88.9874 -57.6301 40.5221 79.5899 -17.6206 -5.19502 -148.379 -45.5697 -2.8657 4.99972 -145.918 -38.3496 -2.39904 127.984 4.29195 120.94 15.5571 50.5324 -166.143 48.4427 5.31144 6.97319 32.3857 -17.2253 49.9172 -8.6138 -36.511 -32.0544 
-30.8426 9.76236 10.8414 -0.562876 -1.98032 77.5906 -175.523 11.2437 88.8531 -20.7917 30.7738 -0.626204 53.745 -0.57259 9.80933 120.404 64.1956 -31.4961 -178.457 13.7791 90.43 -29.5721 -7.93359 -5.01983 58.776 0.192517 0.300066 58.4132 11.1104 43.335 1.99987 6.19645 -92.3419 14.5248 2.80545 -5.10238 2.84642 2.57849 -5.22052 -19.6584 4.20809 -4.02557 0.354306 4.20809 -4.02556 99.3301 -24.896 -88.3546 -57.0672 40.7947 79.1654 -17.9204 -4.20661 -148.877 -44.3972 -2.97514 5.60346 -145.849 -38.4292 -2.26692 127.526 3.83018 121.067 15.2263 50.6406 -165.996 48.0408 5.13142 6.69654 31.816 -17.9478 49.415 -8.35717 -36.7502 -31.6762 
